<svg xmlns="http://www.w3.org/2000/svg" xmlns:xlink="http://www.w3.org/1999/xlink" version="1.1" x="0px" y="0px" viewBox="0 0 100 125" style="enable-background:new 0 0 100 100;" xml:space="preserve"><path d="M58.1692505,57.1440277c-8.5224609,0-16.1328125,5.7952881-20.9087524,14.8822632l-5.6953735-9.0049438  c0.0588379-0.1519165,0.1096191-0.3085938,0.1334229-0.4769287l1.8614502-13.152832  c0.0842285-0.5964355-0.069458-1.1915283-0.4333496-1.6747437c-0.3639526-0.4838867-0.892334-0.7966309-1.4887695-0.8815308  l-1.8607788-0.2628174l-0.0970459,0.6826782c-0.0983887,0.6901245-0.7494507,1.1719971-1.4294434,1.0756226  c-0.3349609-0.0471802-0.6315308-0.2224121-0.8343506-0.4926758c-0.2028809-0.2695313-0.2891235-0.602478-0.241272-0.9367676  l0.0970459-0.684082l-1.8614502-0.2628174c-1.1374512-0.1533203-2.1900024,0.5634155-2.4873047,1.642395  c-0.2254639-0.3127441-0.5215454-0.5700684-0.8824463-0.7359619c-0.5492554-0.2546997-1.1639404-0.2776489-1.7280273-0.0680542  l-1.7623291,0.6517334l0.2385254,0.6469727c0.2419434,0.6544189-0.0936279,1.3842773-0.7473755,1.6262207  c-0.3181152,0.1166382-0.6611328,0.1044922-0.9677734-0.0370483c-0.307373-0.1415405-0.5411987-0.3935547-0.6584473-0.7103271  l-0.2392578-0.647644l-1.7630615,0.6523438c-0.5640869,0.2089233-1.0142822,0.62677-1.2670288,1.1766968  c-0.253418,0.5499878-0.2776489,1.1639404-0.0680542,1.7280273l4.6084595,12.4599609  c0.3369751,0.9111938,1.2036743,1.4759521,2.1242676,1.4759521c0.2594604,0,0.5236816-0.045105,0.7817993-0.1401367  l0.1113892-0.0412598l10.4655762,16.5462646c0.4825439,0.7631836,1.1525879,1.3557129,1.9262695,1.7797852  c-0.4143677,2.0531006-0.7178955,4.1782227-0.8816528,6.3716431c-0.090332,1.2050171,0.3174438,2.3615112,1.1477051,3.2564697  c0.8356934,0.9004517,2.0184937,1.416687,3.2450562,1.416687h43.1246948c1.2265625,0,2.4093628-0.5162354,3.2450562-1.416687  c0.8303223-0.8949585,1.2380371-2.0514526,1.1477661-3.2564697C82.711792,71.4115448,71.553894,57.1440277,58.1692505,57.1440277z   M24.5654297,47.4910736c0.1880493-0.1422119,0.4198608-0.2042236,0.6517334-0.1698608l0.5836182,0.0822144  c0.0559692,0.4549561,0.2298584,0.8889771,0.512207,1.2643433c0.4246216,0.5647583,1.0439453,0.9307251,1.7442017,1.0297852  c1.2070313,0.1705322,2.3433228-0.5074463,2.8022461-1.5783691l0.5843506,0.0828857  c0.2318115,0.03302,0.4373779,0.1550293,0.5795898,0.3443604c0.1422119,0.1887207,0.2028809,0.4199219,0.1697998,0.6517334  l-1.7134399,12.1069946l-1.5444336-2.4418945c-1.2832031-2.0297241-3.7258301-2.8630371-5.9259033-2.2316284l1.2116699-8.5616455  C24.2540894,47.8387909,24.3760376,47.6332855,24.5654297,47.4910736z M18.9804077,63.8606415l-4.6084595-12.460022  c-0.168457-0.454895,0.0653687-0.9624023,0.5203247-1.1315308l0.5532837-0.2042236  c0.2648926,0.3740234,0.6240845,0.6732788,1.0513916,0.8700562c0.6422729,0.2945557,1.3606567,0.3241577,2.0231934,0.0768433  c1.1436768-0.4225464,1.8216553-1.5588379,1.7172241-2.7200317l0.5539551-0.204895h0.0006714  c0.2183838-0.0808716,0.4569702-0.0708008,0.671936,0.0276489c0.2149658,0.0990601,0.3781128,0.274292,0.4596558,0.4932861  l0.5983276,1.6175537l-1.0032959,7.0894165c-1.1199341,0.7542114-1.9066772,1.8842773-2.206604,3.21521  c-0.3015747,1.3411865-0.0717773,2.7108765,0.6300049,3.8776245C19.538208,64.4698334,19.1279907,64.2601166,18.9804077,63.8606415z   M32.3353882,81.4432831L21.1626587,63.7790375c-1.1517334-1.8209839-0.6072388-4.2398071,1.2138062-5.3922119  c0.6469727-0.4091187,1.3687744-0.6038818,2.0831909-0.6038818c1.2966309,0,2.5664063,0.6436157,3.3097534,1.817627  l11.1720581,17.6642456c1.1517944,1.8209839,0.6072388,4.2398071-1.2138062,5.3922119  C35.9039917,83.809494,33.487854,83.2635956,32.3353882,81.4432831z M81.9643555,92.649704  c-0.5748901,0.6200562-1.3889771,0.9752197-2.2327881,0.9752197H36.6068726c-0.84375,0-1.6578979-0.3551636-2.2327881-0.9752197  c-0.5667725-0.6099243-0.8450928-1.3970947-0.7838135-2.215271c0.152832-2.0477295,0.4318237-4.0323486,0.8088379-5.9528809  c0.0274658,0.0066528,0.0518799,0.0199585,0.0794678,0.0261841c0.3922119,0.0882568,0.7871704,0.1320801,1.1787109,0.1320801  c0.9887085,0,1.9564819-0.2776489,2.8076782-0.8168335c1.1895142-0.7521362,2.0158081-1.9274902,2.3271484-3.309082  c0.31073-1.3815918,0.0680542-2.7975464-0.6847534-3.9863892l-1.9997559-3.1618652  c4.5062866-9.0450439,11.8406982-14.8413696,20.0616455-14.8413696c12.6540527,0,23.2208862,13.7182617,24.5789185,31.9101563  C82.8095093,91.2526093,82.5311279,92.0397797,81.9643555,92.649704z"/><path d="M81.4609375,25.2790375c-0.2174072,0-0.4273071,0.0290527-0.6348267,0.064209  C79.6116943,13.9529266,70.0090332,5.0354462,58.3007813,5.0354462c-11.7611694,0-21.4110107,8.9953613-22.5547485,20.4602661  c-0.3833008-0.130127-0.7868652-0.2166748-1.213562-0.2166748c-2.0986938,0-3.8064575,1.7077637-3.8064575,3.8064575v5.4987793  c0,2.0993042,1.7077637,3.8071289,3.8064575,3.8071289s3.8064575-1.7078247,3.8064575-3.8071289V29.085495  c0-1.1251831-0.5003052-2.1271973-1.2791748-2.8247681c0.776062-11.0663452,9.9807129-19.8450317,21.2410278-19.8450317  c11.116333,0,20.2283325,8.5548096,21.2077026,19.4196777C78.4028931,26.502182,77.65448,27.7031097,77.65448,29.085495v5.4987793  c0,1.838623,1.3100586,3.3764648,3.0453491,3.7301636c-0.3826904,2.112793-2.7052002,4.0187988-6.1477051,5.3396606  c1.098938-2.335022,1.7315063-4.9310303,1.7315063-7.6781616v-8.2821655c0-9.987915-8.1257935-18.1137085-18.1143799-18.1137085  c-9.9879761,0-18.1137695,8.1257935-18.1137695,18.1137085v8.2821655c0,9.9886475,8.1257935,18.1144409,18.1137695,18.1144409  c6.4996338,0,12.1936035-3.4520264,15.3901978-8.607666c4.8641357-1.5128784,8.1306763-4.1075439,8.52948-7.1547852  c1.7993164-0.3016968,3.1784668-1.859436,3.1784668-3.7436523V29.085495  C85.267395,26.9868011,83.5595703,25.2790375,81.4609375,25.2790375z M36.9586792,34.5842743  c0,1.3384399-1.0883789,2.4268799-2.4262085,2.4268799c-1.3377686,0-2.4262085-1.0884399-2.4262085-2.4268799V29.085495  c0-1.3377686,1.0884399-2.4262085,2.4262085-2.4262085c1.3378296,0,2.4262085,1.0884399,2.4262085,2.4262085V34.5842743z   M58.1692505,52.7101288c-9.2270508,0-16.7335205-7.5071411-16.7335205-16.7341919v-8.2821655  c0-9.2269897,7.5064697-16.7334595,16.7335205-16.7334595s16.7341309,7.5064697,16.7341309,16.7334595v8.2821655  c0,3.0222778-0.8172607,5.8521729-2.2247314,8.302002c-2.541748,0.741272-5.510498,1.1884766-8.6646118,1.2324829  c-0.3723755-0.9341431-1.2817383-1.5980225-2.3476563-1.5980225h-3.5652466c-1.3956909,0-2.5306396,1.1348877-2.5306396,2.5299683  c0,1.395752,1.1349487,2.5307007,2.5306396,2.5307007h3.5652466c1.2434692,0,2.274231-0.9024658,2.4856567-2.0859375  c2.6442261-0.0427246,5.1278687-0.343811,7.3621216-0.8567505C68.4569092,50.0778046,63.6207275,52.7101288,58.1692505,52.7101288z   M62.8167725,46.4423676c0,0.6342163-0.5162354,1.1504517-1.1503906,1.1504517h-3.5652466  c-0.6341553,0-1.1503906-0.5162354-1.1503906-1.1504517c0-0.6341553,0.5162354-1.1497192,1.1503906-1.1497192h3.5652466  C62.3005371,45.2926483,62.8167725,45.8082123,62.8167725,46.4423676z M83.887146,34.5842743  c0,1.3384399-1.0884399,2.4268799-2.4262085,2.4268799c-1.3378296,0-2.4262085-1.0884399-2.4262085-2.4268799V29.085495  c0-1.3377686,1.0883789-2.4262085,2.4262085-2.4262085c1.3377686,0,2.4262085,1.0884399,2.4262085,2.4262085V34.5842743z"/><path d="M53.1018066,27.7106171c0.3032837,0.2332153,0.7352905,0.1793213,0.9684448-0.123291  c0.2332153-0.3012695,0.1779175-0.7346191-0.123291-0.9685059c-2.1209106-1.6410522-5.069458-1.7825928-7.3400269-0.3504028  l-0.4953003,0.3126831c-0.3222046,0.2035522-0.4185791,0.6294556-0.2150269,0.9522705  c0.1314087,0.2075806,0.3551636,0.3214722,0.5843506,0.3214722c0.1259766,0,0.2533569-0.0343628,0.3679199-0.1064453  l0.4953613-0.3127441C49.1241455,26.3101654,51.4378052,26.4227142,53.1018066,27.7106171z"/><circle cx="50.0023804" cy="28.9001617" r="1.0464172"/><path d="M62.8147583,27.8548431c0.1260376,0,0.253418-0.0343628,0.367981-0.1064453l0.4953613-0.3127441  c1.7805786-1.1254883,4.0935669-1.0129395,5.7575684,0.2749634c0.3032227,0.2332153,0.7352295,0.1793213,0.9684448-0.123291  c0.2331543-0.3012695,0.1779175-0.7346191-0.1233521-0.9685059c-2.121582-1.6410522-5.069458-1.7825928-7.3399658-0.3504028  l-0.4953613,0.3126831c-0.3221436,0.2035522-0.4185181,0.6294556-0.2149658,0.9522705  C62.3618774,27.7409515,62.5856323,27.8548431,62.8147583,27.8548431z"/><circle cx="66.3363037" cy="28.9001617" r="1.0464172"/><path d="M65.3838501,39.7628632c0.2695923-0.2695923,0.2695923-0.7062988,0-0.9758911  c-0.2695923-0.2695313-0.7062988-0.2695313-0.9758911,0c-1.6680298,1.6680298-3.8833008,2.5866699-6.2387085,2.5866699  c-2.3554688,0-4.5707397-0.9186401-6.2387695-2.5866699c-0.2695923-0.2695313-0.7062988-0.2695313-0.9758911,0  c-0.2695923,0.2695923-0.2695923,0.7062988,0,0.9758911c1.928833,1.928833,4.4905396,2.9910278,7.2146606,2.9910278  C60.8933105,42.753891,63.4550171,41.6916962,65.3838501,39.7628632z"/><path d="M55.9364624,62.8065643l-0.8835449-1.211792c-0.7434082-1.0196533-2.1452026-1.3424683-3.2592163-0.7493896  l-4.086853,2.1754761c-0.6584473,0.3504639-1.1295166,0.9691772-1.2913208,1.6976929  c-0.1624146,0.7278442,0.0014038,1.4880981,0.4495239,2.0852051l1.4119263,1.8816528  c0.4178467,0.5567017,1.0285034,0.9111938,1.7185669,0.9987793c0.1098633,0.0141602,0.2190552,0.0209351,0.3275757,0.0209351  c0.5755615,0,1.1295166-0.1934204,1.5864868-0.5587158l3.5584106-2.8453979  C56.5369263,65.4470673,56.7424927,63.9125214,55.9364624,62.8065643z M54.6060791,65.222641L51.0482788,68.0681  c-0.25,0.1994629-0.5593872,0.2836914-0.8788452,0.2473145c-0.3167114-0.0404053-0.5971069-0.2035522-0.7885132-0.4589844  l-1.4119263-1.8816528c-0.2055664-0.2736206-0.2810059-0.6227417-0.2062378-0.9562988  c0.0741577-0.3342896,0.2904663-0.618042,0.5924072-0.7791138l4.086853-2.1754761  c0.1725464-0.0916748,0.3598633-0.1361694,0.5458984-0.1361694c0.3652954,0,0.7238159,0.1698608,0.9502563,0.4798584  l0.8828735,1.211731C55.19104,64.1268158,55.0966797,64.8311005,54.6060791,65.222641z"/><path d="M68.6323242,63.0208588l-4.0875244-2.1754761c-1.1140747-0.5930786-2.5158691-0.2702637-3.2592163,0.7493896  l-0.8842163,1.211792c-0.8053589,1.1052856-0.5991821,2.6398315,0.4690552,3.4944458l3.5584717,2.8453979  c0.4575806,0.3652954,1.0109253,0.5587158,1.5864258,0.5587158c0.1085205,0,0.2177124-0.0067749,0.3269043-0.0202637  c0.6907959-0.0875854,1.3013916-0.442749,1.7192383-0.9994507l1.4119263-1.8816528  c0.4481812-0.5971069,0.6119385-1.3573608,0.4501953-2.0852051C69.7611694,63.990036,69.2907715,63.3713226,68.6323242,63.0208588z   M68.3694458,65.9747772l-1.4119263,1.8816528c-0.1920776,0.2561035-0.4717407,0.4185791-0.7885132,0.4589844  c-0.3174438,0.0350342-0.6287842-0.0485229-0.8781738-0.2473145l-3.5584106-2.845459  c-0.4906616-0.3915405-0.585022-1.0958252-0.2156982-1.6033325l0.8835449-1.211731  c0.2264404-0.3099976,0.585022-0.4798584,0.9502563-0.4798584c0.1853638,0,0.3734131,0.0444946,0.5458984,0.1361694  l4.0875244,2.1754761c0.3019409,0.1604004,0.5175781,0.4448242,0.5917358,0.7784424  C68.6505127,65.3520355,68.5750122,65.7011566,68.3694458,65.9747772z"/><path d="M58.1692505,68.1300507c-1.1733398,0-2.1276855,0.9543457-2.1276855,2.1276855s0.9543457,2.1276855,2.1276855,2.1276855  s2.1282959-0.9543457,2.1282959-2.1276855S59.3425903,68.1300507,58.1692505,68.1300507z M58.1692505,71.0051727  c-0.4118042,0-0.7474365-0.3349609-0.7474365-0.7474365s0.3356323-0.7474365,0.7474365-0.7474365  c0.4124146,0,0.7480469,0.3349609,0.7480469,0.7474365S58.581665,71.0051727,58.1692505,71.0051727z"/><path d="M58.1692505,76.4115448c-1.1733398,0-2.1276855,0.9543457-2.1276855,2.1276855s0.9543457,2.1276855,2.1276855,2.1276855  s2.1282959-0.9543457,2.1282959-2.1276855S59.3425903,76.4115448,58.1692505,76.4115448z M58.1692505,79.2866669  c-0.4118042,0-0.7474365-0.3349609-0.7474365-0.7474365s0.3356323-0.7474365,0.7474365-0.7474365  c0.4124146,0,0.7480469,0.3349609,0.7480469,0.7474365S58.581665,79.2866669,58.1692505,79.2866669z"/><path d="M58.1692505,86.073288c-1.1733398,0-2.1276855,0.9543457-2.1276855,2.1276855s0.9543457,2.1276245,2.1276855,2.1276245  s2.1282959-0.9542847,2.1282959-2.1276245S59.3425903,86.073288,58.1692505,86.073288z M58.1692505,88.948349  c-0.4118042,0-0.7474365-0.3348999-0.7474365-0.7473755s0.3356323-0.7474365,0.7474365-0.7474365  c0.4124146,0,0.7480469,0.3349609,0.7480469,0.7474365S58.581665,88.948349,58.1692505,88.948349z"/><text x="0" y="115" fill="#000000" font-size="5px" font-weight="bold" font-family="'Helvetica Neue', Helvetica, Arial-Unicode, Arial, Sans-serif">Created by Evgeni Moryakov</text><text x="0" y="120" fill="#000000" font-size="5px" font-weight="bold" font-family="'Helvetica Neue', Helvetica, Arial-Unicode, Arial, Sans-serif">from the Noun Project</text></svg>